<svg id="Logo_and_tagline" data-name="Logo and tagline" xmlns="http://www.w3.org/2000/svg" width="350" height="43.748" viewBox="0 0 350 43.748">
  <g id="mundipharma-logo" transform="translate(0.002 0.505)">
    <path id="Path_13256" data-name="Path 13256" d="M111.229,34.073a21.748,21.748,0,1,1,21.748,21.561,21.748,21.748,0,0,1-21.748-21.561" transform="translate(-73.172 -12.642)" fill="#065395"/>
    <path id="Path_13257" data-name="Path 13257" d="M145.423,29.566a20.8,20.8,0,0,0-9.17-9.553c.3-.187.6-.365.913-.539a21.7,21.7,0,0,1,9.263,10.095Zm-9.17,26.929a20.762,20.762,0,0,0,9.781-11h.972a21.646,21.646,0,0,1-9.841,11.535c-.309-.174-.613-.351-.913-.539" transform="translate(-87.789 -16.822)" fill="#fff"/>
    <path id="Path_13258" data-name="Path 13258" d="M69.712,25.507A21.737,21.737,0,0,1,83.323,13.568c-.266-.012-.534-.016-.8-.016a20.842,20.842,0,0,0-18.9,11.956H62.615A21.858,21.858,0,0,1,93.161,15.4c-.309.171-.613.353-.915.54a20.383,20.383,0,0,0-2.631-1.157,20.76,20.76,0,0,0-11.81,10.725h-1A21.677,21.677,0,0,1,88.24,14.339a20.868,20.868,0,0,0-2.158-.486A20.843,20.843,0,0,0,70.717,25.506ZM83.3,54.84A21.722,21.722,0,0,1,69.127,41.459H70.1a20.819,20.819,0,0,0,15.958,13.1,21.952,21.952,0,0,0,2.176-.492A21.7,21.7,0,0,1,76.229,41.459H77.2A20.821,20.821,0,0,0,89.615,53.626a21.191,21.191,0,0,0,2.631-1.156q.452.278.915.539A21.853,21.853,0,0,1,62.035,41.459h.975A20.831,20.831,0,0,0,82.519,54.854c.264,0,.525,0,.785-.014" transform="translate(-43.559 -12.772)" fill="#fff"/>
    <path id="Path_13259" data-name="Path 13259" d="M25.652,64.284V58.69A2.279,2.279,0,0,0,23.3,56.117a3.043,3.043,0,0,0-2.187.714,2.9,2.9,0,0,0-2.216-.714,6.016,6.016,0,0,0-2.887.594v7.571h2.276V57.872a1.355,1.355,0,0,1,.611-.119c.551,0,.788.388.788.937v5.594h2.291V57.975a.912.912,0,0,1,.64-.223c.52,0,.759.371.759.937v5.594Z" transform="translate(-16.013 -38.734)" fill="#fff"/>
    <path id="Path_13260" data-name="Path 13260" d="M49.825,64.045V56.488h-2.3v6.249a1.473,1.473,0,0,1-.594.132.716.716,0,0,1-.742-.816V56.486h-2.3V61.8c0,2.113,1.131,2.858,2.993,2.858a5.7,5.7,0,0,0,2.944-.611" transform="translate(-32.542 -38.957)" fill="#fff"/>
    <path id="Path_13261" data-name="Path 13261" d="M68.728,64.288V58.694c0-1.711-.862-2.573-3.065-2.573a6.168,6.168,0,0,0-2.9.594v7.571h2.276V57.876a1.352,1.352,0,0,1,.611-.089c.58,0,.788.326.788.906v5.594Z" transform="translate(-43.908 -38.737)" fill="#fff"/>
    <path id="Path_13262" data-name="Path 13262" d="M86.85,58.726V47.494H84.574v3.721a2.127,2.127,0,0,0-.937-.148c-1.682,0-2.841,1.591-2.841,4.121,0,2.751,1.248,4.135,3.347,4.135a4.954,4.954,0,0,0,2.708-.594m-2.276-1.174a.781.781,0,0,1-.371.06c-.816,0-1.131-.891-1.131-2.515,0-1.428.238-2.5,1.145-2.5.134,0,.268.031.357.031Z" transform="translate(-54.669 -33.604)" fill="#fff"/>
    <path id="Path_13263" data-name="Path 13263" d="M102.313,48.882a1.211,1.211,0,0,0-1.221-1.2,1.2,1.2,0,1,0,1.22,1.2m-.074,2.38H99.962v8.016h2.276Z" transform="translate(-66.056 -33.714)" fill="#fff"/>
    <path id="Path_13264" data-name="Path 13264" d="M122.291,60.21c0-2.633-1.113-4.093-3.139-4.093a4.2,4.2,0,0,0-2.322.594v10.77h1.594V64.256a2.729,2.729,0,0,0,.937.163c1.711,0,2.93-1.591,2.93-4.21m-1.577.06c0,1.442-.371,3-1.7,3a1.687,1.687,0,0,1-.594-.1V57.4a1.461,1.461,0,0,1,.7-.132c1.188,0,1.591,1.41,1.591,3" transform="translate(-76.167 -38.754)" fill="#fff"/>
    <path id="Path_13265" data-name="Path 13265" d="M138.355,59.176V53.461a2.164,2.164,0,0,0-2.276-2.455,2.9,2.9,0,0,0-1.442.4V47.5h-1.594V59.176h1.6V52.451a2.018,2.018,0,0,1,1.025-.282c.668,0,1.113.462,1.113,1.3V59.18Z" transform="translate(-85.841 -33.605)" fill="#fff"/>
    <path id="Path_13266" data-name="Path 13266" d="M153.9,63.843V58.9c0-2.082-1.131-2.782-2.513-2.782a4.231,4.231,0,0,0-2.262.594l.343,1.057a3.288,3.288,0,0,1,1.651-.462,1.168,1.168,0,0,1,1.262,1.336v.343c-2.053.254-3.676.891-3.676,2.976,0,1.516.891,2.47,2.738,2.47a4.273,4.273,0,0,0,2.454-.594m-1.516-.668a1.865,1.865,0,0,1-.848.177,1.243,1.243,0,0,1-1.336-1.428c0-1.323.759-1.739,2.187-1.962Z" transform="translate(-95.182 -38.74)" fill="#fff"/>
    <path id="Path_13267" data-name="Path 13267" d="M168.19,56.143a5.675,5.675,0,0,0-3.348.58v7.571h1.591V57.511a1.567,1.567,0,0,1,1.41-.029Z" transform="translate(-104.799 -38.746)" fill="#fff"/>
    <path id="Path_13268" data-name="Path 13268" d="M183.878,64.285V58.559a2.185,2.185,0,0,0-2.231-2.441,2.727,2.727,0,0,0-2.128.816,2.544,2.544,0,0,0-2.127-.816,4.79,4.79,0,0,0-2.559.594v7.571h1.591V57.471a1.864,1.864,0,0,1,.954-.193,1.173,1.173,0,0,1,1.188,1.282v5.726h1.577v-6.5a1.349,1.349,0,0,1,1.057-.491c.686,0,1.088.46,1.088,1.262v5.726Z" transform="translate(-110.885 -38.735)" fill="#fff"/>
    <path id="Path_13269" data-name="Path 13269" d="M204.817,63.843V58.9c0-2.082-1.132-2.782-2.514-2.782a4.224,4.224,0,0,0-2.262.594l.342,1.057a3.3,3.3,0,0,1,1.652-.462,1.168,1.168,0,0,1,1.262,1.336v.343c-2.054.254-3.676.891-3.676,2.976,0,1.516.891,2.47,2.739,2.47a4.275,4.275,0,0,0,2.454-.594m-1.516-.668a1.86,1.86,0,0,1-.848.177,1.243,1.243,0,0,1-1.336-1.428c0-1.323.759-1.739,2.187-1.962Z" transform="translate(-125.585 -38.74)" fill="#fff"/>
  </g>
  <text id="Where_care_and_collaboration_meet_to_make_a_difference_when_it_matters_most." data-name="Where care and collaboration meet, 
to make a difference when it matters most." transform="translate(101 11.748)" fill="#fff" font-size="12" font-family="Helvetica-Bold, Helvetica" font-weight="700"><tspan x="0" y="9">Where care and collaboration meet, </tspan><tspan x="0" y="23">to make a difference when it matters most.</tspan></text>
  <line id="Line_79" data-name="Line 79" y2="43" transform="translate(92.5 0.5)" fill="none" stroke="#fff" stroke-width="1"/>
</svg>
